<?xml version="1.0" encoding="utf-8"?>
<!-- Generator: Adobe Illustrator 25.2.1, SVG Export Plug-In . SVG Version: 6.00 Build 0)  -->
<svg version="1.1" id="Layer_1" xmlns="http://www.w3.org/2000/svg" xmlns:xlink="http://www.w3.org/1999/xlink" x="0px" y="0px"
	 viewBox="0 0 278 112" style="enable-background:new 0 0 278 112;" xml:space="preserve">
<g transform="matrix( 1, 0, 0, 1, 0,0) ">
	<g>
		<g id="Layer0_0_FILL">
			<path d="M128.8,28.6h-8.6v8.2h8.6V28.6 M111.7,28.6H97.6v8.2h14.1V28.6 M89,36.8v-8.2H65.5v8.2H89 M50.1,62.6
				c-0.8,0-1.5,0.2-2.1,0.7s-0.9,1.2-0.9,2v14.8c0,0.8,0.3,1.5,0.9,2.2c0.6,0.6,1.3,0.9,2.1,0.9h17.6v-2.9H53v-2.5l12-3.4
				c1.8-0.6,2.7-1.7,2.7-3.2v-5.7c0-0.8-0.3-1.5-0.8-2.1c-0.6-0.6-1.3-0.9-2.1-0.9L50.1,62.6 M53,74v-8.7h8.8v6.2L53,74 M35.3,62.6
				c-1.2,0-2.1,0.5-2.6,1.5c-0.2,0.5-0.3,0.9-0.3,1.4v-2.9h-5.9v20.6h5.9V68.5c0-1.2,0.5-2.1,1.5-2.6l1.5-0.4h5.9v-2.9H35.3 M3,56.8
				c-0.8,0-1.5,0.3-2.1,0.9C0.3,58.3,0,59,0,59.8v20.6c0,0.8,0.3,1.5,0.9,2.1s1.3,0.9,2.1,0.9h17.7v-2.9H5.9V59.7h14.7v-3L3,56.8
				 M156,62.6h-5.9v20.6h5.9V62.6 M150.1,59.7h5.9v-3h-5.9V59.7 M129.5,65.6h8.8v17.7h5.9V65.6c0-0.8-0.3-1.5-0.9-2.1
				s-1.3-0.9-2.1-0.9h-11.8v-5.9h-5.9v26.5h5.9V65.6 M117.7,65.6v-2.9H103c-0.8,0-1.5,0.3-2.1,0.9c-0.6,0.6-0.9,1.3-0.9,2.1v5.9
				c0,0.8,0.3,1.5,0.9,2.1c0.6,0.6,1.3,0.8,2.1,0.8h8.8v5.9H100v2.9h14.7c0.8,0,1.5-0.3,2.1-0.9s0.8-1.2,0.8-2.1v-5.9
				c0-0.8-0.3-1.5-0.8-2.1s-1.3-0.8-2.1-0.8h-8.8v-5.9H117.7 M94.2,65.6c0-0.8-0.3-1.5-0.9-2.1c-0.6-0.6-1.3-0.9-2.1-0.9H76.5
				c-0.8,0-1.5,0.3-2.1,0.9c-0.6,0.6-0.9,1.3-0.9,2.1v14.7c0,0.8,0.3,1.5,0.9,2.1s1.3,0.9,2.1,0.9h14.7c0.8,0,1.5-0.3,2.1-0.9
				s0.9-1.3,0.9-2.1V65.6 M79.4,65.6h8.8v14.7h-8.8V65.6 M191.2,65.6h2.9v-2.9h-2.9v-5.9h-5.9v5.9h-3v2.9h3v14.7
				c0,0.8,0.3,1.5,0.8,2.1c0.6,0.6,1.3,0.9,2.1,0.9h5.9v-2.9h-2.9L191.2,65.6 M170.7,65.6h5.9v-2.9h-5.9v-2.9h5.9v-3h-8.8
				c-0.8,0-1.5,0.3-2.1,0.9c-0.6,0.6-0.9,1.3-0.9,2.1v2.9h-2.9v2.9h2.9v17.7h5.9L170.7,65.6L170.7,65.6z"/>
		</g>
	</g>
</g>
</svg>
