<?xml version="1.0" encoding="utf-8"?>
<!-- Generator: Adobe Illustrator 25.2.1, SVG Export Plug-In . SVG Version: 6.00 Build 0)  -->
<svg version="1.1" id="Layer_1" xmlns="http://www.w3.org/2000/svg" xmlns:xlink="http://www.w3.org/1999/xlink" x="0px" y="0px"
	 viewBox="0 0 326 112" style="enable-background:new 0 0 326 112;" xml:space="preserve">
<g transform="matrix( 1, 0, 0, 1, 0,0) ">
	<g>
		<g id="Layer0_0_FILL">
			<path d="M194.7,28.6h-8.6v8.2h8.6V28.6 M177.6,28.6h-14.1v8.2h14.1V28.6 M154.9,36.8v-8.2h-23.5v8.2H154.9 M116,62.6
				c-0.8,0-1.5,0.2-2.1,0.7c-0.6,0.5-0.9,1.2-0.9,2v14.8c0,0.8,0.3,1.5,0.9,2.2c0.6,0.6,1.3,0.9,2.1,0.9h17.6v-2.9h-14.7v-2.5
				l12-3.4c1.8-0.6,2.7-1.7,2.7-3.2v-5.7c0-0.8-0.3-1.5-0.8-2.1c-0.6-0.6-1.3-0.9-2.1-0.9L116,62.6 M118.9,74v-8.7h8.8v6.2L118.9,74
				 M101.2,62.6c-1.2,0-2.1,0.5-2.6,1.5c-0.2,0.5-0.3,0.9-0.3,1.4v-2.9h-5.9v20.6h5.9V68.5c0-1.2,0.5-2.1,1.5-2.6l1.5-0.4h5.9v-2.9
				H101.2 M68.9,56.8c-0.8,0-1.5,0.3-2.1,0.9c-0.6,0.6-0.9,1.3-0.9,2.1v20.6c0,0.8,0.3,1.5,0.9,2.1c0.6,0.6,1.3,0.9,2.1,0.9h17.7
				v-2.9H71.8V59.7h14.7v-3L68.9,56.8 M221.9,62.6H216v20.6h5.9V62.6 M216,59.7h5.9v-3H216V59.7 M195.4,65.6h8.8v17.7h5.9V65.6
				c0-0.8-0.3-1.5-0.9-2.1c-0.6-0.6-1.3-0.9-2.1-0.9h-11.8v-5.9h-5.9v26.5h5.9V65.6 M183.6,65.6v-2.9h-14.7c-0.8,0-1.5,0.3-2.1,0.9
				c-0.6,0.6-0.9,1.3-0.9,2.1v5.9c0,0.8,0.3,1.5,0.9,2.1c0.6,0.6,1.3,0.8,2.1,0.8h8.8v5.9h-11.8v2.9h14.7c0.8,0,1.5-0.3,2.1-0.9
				s0.8-1.2,0.8-2.1v-5.9c0-0.8-0.3-1.5-0.8-2.1s-1.3-0.8-2.1-0.8h-8.8v-5.9H183.6 M160.1,65.6c0-0.8-0.3-1.5-0.9-2.1
				c-0.6-0.6-1.3-0.9-2.1-0.9h-14.7c-0.8,0-1.5,0.3-2.1,0.9c-0.6,0.6-0.9,1.3-0.9,2.1v14.7c0,0.8,0.3,1.5,0.9,2.1s1.3,0.9,2.1,0.9
				h14.7c0.8,0,1.5-0.3,2.1-0.9s0.9-1.3,0.9-2.1V65.6 M145.3,65.6h8.8v14.7h-8.8V65.6 M257.1,65.6h2.9v-2.9h-2.9v-5.9h-5.9v5.9h-3
				v2.9h3v14.7c0,0.8,0.3,1.5,0.8,2.1c0.6,0.6,1.3,0.9,2.1,0.9h5.9v-2.9h-2.9L257.1,65.6 M236.6,65.6h5.9v-2.9h-5.9v-2.9h5.9v-3
				h-8.8c-0.8,0-1.5,0.3-2.1,0.9c-0.6,0.6-0.9,1.3-0.9,2.1v2.9h-2.9v2.9h2.9v17.7h5.9L236.6,65.6L236.6,65.6z"/>
		</g>
	</g>
</g>
</svg>
